<?xml version="1.0" encoding="UTF-8"?>
<!DOCTYPE svg PUBLIC "-//W3C//DTD SVG 1.1//EN" "http://www.w3.org/Graphics/SVG/1.1/DTD/svg11.dtd">
<svg xmlns="http://www.w3.org/2000/svg" version="1.1" width="200px" height="200px" style="shape-rendering:geometricPrecision; text-rendering:geometricPrecision; image-rendering:optimizeQuality; fill-rule:evenodd; clip-rule:evenodd" xmlns:xlink="http://www.w3.org/1999/xlink">
<g><path style="opacity:0.984" fill="#63a58a" d="M 24.5,3.5 C 52.1667,3.5 79.8333,3.5 107.5,3.5C 99.6772,4.32923 91.6772,4.82923 83.5,5C 85.087,5.86241 86.7536,6.52907 88.5,7C 89.3524,9.36174 90.8524,11.1951 93,12.5C 93.4955,14.4727 93.6621,16.4727 93.5,18.5C 93.0198,21.4432 92.0198,24.1098 90.5,26.5C 72.2737,4.49115 50.607,0.324488 25.5,14C 3.45259,32.7863 -0.0474113,54.6197 15,79.5C 27.4816,94.3838 43.3149,100.05 62.5,96.5C 62.5,95.5 62.5,94.5 62.5,93.5C 66.9574,95.7275 71.624,97.3942 76.5,98.5C 52.0056,99.4977 27.339,99.831 2.5,99.5C 2.33336,74.4978 2.50003,49.4978 3,24.5C 6.09143,13.241 13.2581,6.24099 24.5,3.5 Z"/></g>
<g><path style="opacity:1" fill="#6fac92" d="M 107.5,3.5 C 110.85,3.33499 114.183,3.50166 117.5,4C 112.844,5.64682 109.011,8.48015 106,12.5C 105.29,11.0267 104.124,10.3601 102.5,10.5C 101.878,9.37344 101.045,8.37344 100,7.5C 97.807,11.2299 95.6404,14.8965 93.5,18.5C 93.6621,16.4727 93.4955,14.4727 93,12.5C 90.8524,11.1951 89.3524,9.36174 88.5,7C 86.7536,6.52907 85.087,5.86241 83.5,5C 91.6772,4.82923 99.6772,4.32923 107.5,3.5 Z"/></g>
<g><path style="opacity:0.968" fill="#84b3a0" d="M 24.5,3.5 C 49.4978,2.83336 74.6644,2.50003 100,2.5C 126.547,2.35088 153.047,2.85088 179.5,4C 188.52,7.68453 194.353,14.1845 197,23.5C 197.5,43.8306 197.667,64.1639 197.5,84.5C 193.363,89.4692 188.696,93.9692 183.5,98C 185.167,98.3333 186.833,98.6667 188.5,99C 179.173,99.4998 169.839,99.6665 160.5,99.5C 191.069,87.0246 201.902,64.6912 193,32.5C 179.483,7.66966 158.983,-0.83034 131.5,7C 124.556,10.0526 118.389,14.2193 113,19.5C 111.384,21.7133 110.217,24.0466 109.5,26.5C 107.556,21.0011 105.222,15.6678 102.5,10.5C 104.124,10.3601 105.29,11.0267 106,12.5C 109.011,8.48015 112.844,5.64682 117.5,4C 114.183,3.50166 110.85,3.33499 107.5,3.5C 79.8333,3.5 52.1667,3.5 24.5,3.5 Z"/></g>
<g><path style="opacity:1" fill="#8cbba7" d="M 160.5,99.5 C 147.833,99.5 135.167,99.5 122.5,99.5C 127.057,97.8396 131.724,96.173 136.5,94.5C 160.922,99.3721 178.756,90.7054 190,68.5C 197.562,44.1666 190.728,25.3332 169.5,12C 144.887,2.26783 125.22,8.10117 110.5,29.5C 109.89,28.609 109.557,27.609 109.5,26.5C 110.217,24.0466 111.384,21.7133 113,19.5C 118.389,14.2193 124.556,10.0526 131.5,7C 158.983,-0.83034 179.483,7.66966 193,32.5C 201.902,64.6912 191.069,87.0246 160.5,99.5 Z"/></g>
<g><path style="opacity:1" fill="#92beab" d="M 136.5,94.5 C 138.9,92.8001 141.566,91.4668 144.5,90.5C 158.952,93.9374 171.452,89.2708 182,76.5C 193.443,59.2705 193.11,42.2705 181,25.5C 165.007,8.9853 146.84,6.15197 126.5,17C 120.213,21.4477 115.213,26.9477 111.5,33.5C 110.766,32.2921 110.433,30.9587 110.5,29.5C 125.22,8.10117 144.887,2.26783 169.5,12C 190.728,25.3332 197.562,44.1666 190,68.5C 178.756,90.7054 160.922,99.3721 136.5,94.5 Z"/></g>
<g><path style="opacity:1" fill="#569f81" d="M 90.5,26.5 C 89.9448,30.3968 88.9448,34.0635 87.5,37.5C 75.8172,15.6717 58.1505,8.83835 34.5,17C 14.6481,29.2388 8.81474,46.4055 17,68.5C 23.2276,80.5333 33.0609,87.5333 46.5,89.5C 48.3328,89.4146 49.6661,88.7479 50.5,87.5C 54.4734,89.4867 58.4734,91.4867 62.5,93.5C 62.5,94.5 62.5,95.5 62.5,96.5C 43.3149,100.05 27.4816,94.3838 15,79.5C -0.0474113,54.6197 3.45259,32.7863 25.5,14C 50.607,0.324488 72.2737,4.49115 90.5,26.5 Z"/></g>
<g><path style="opacity:1" fill="#a0c5b5" d="M 151.5,86.5 C 164.012,77.829 174.012,66.829 181.5,53.5C 181.158,52.6618 180.492,52.3284 179.5,52.5C 181.663,46.3703 180.83,40.3703 177,34.5C 167.992,22.0466 155.825,17.2133 140.5,20C 122.231,26.3258 114.398,39.1592 117,58.5C 117.959,62.4145 119.459,66.0811 121.5,69.5C 120.193,70.865 120.193,72.1984 121.5,73.5C 117.229,77.2688 113.062,81.2688 109,85.5C 110.572,78.9717 111.906,72.305 113,65.5C 113.5,59.1754 113.666,52.8421 113.5,46.5C 115.213,31.2548 123.546,21.0882 138.5,16C 166.189,12.0124 182.189,23.8457 186.5,51.5C 184.44,71.6622 173.606,83.9956 154,88.5C 153.167,88.3333 152.333,88.1667 151.5,88C 152.738,87.31 152.738,86.81 151.5,86.5 Z"/></g>
<g><path style="opacity:1" fill="#4b9979" d="M 87.5,37.5 C 85.7487,54.2232 87.2487,70.5565 92,86.5C 85.9564,79.9544 79.4564,73.9544 72.5,68.5C 72.8333,68.5 73.1667,68.5 73.5,68.5C 74.4959,68.4142 75.3292,68.7476 76,69.5C 85.6848,54.5184 84.1848,40.6851 71.5,28C 63.0085,21.7436 53.6751,19.7436 43.5,22C 38.793,24.0232 34.1263,26.0232 29.5,28C 24.453,34.9634 21.453,42.7967 20.5,51.5C 21.1571,52.316 22.4905,52.9826 24.5,53.5C 22.712,53.2148 21.0453,53.5481 19.5,54.5C 27.4588,67.7903 37.7921,78.7903 50.5,87.5C 49.6661,88.7479 48.3328,89.4146 46.5,89.5C 33.0609,87.5333 23.2276,80.5333 17,68.5C 8.81474,46.4055 14.6481,29.2388 34.5,17C 58.1505,8.83835 75.8172,15.6717 87.5,37.5 Z"/></g>
<g><path style="opacity:1" fill="#419372" d="M 73.5,68.5 C 81.2404,56.8144 81.0737,45.1477 73,33.5C 64.8874,25.0213 55.0541,22.188 43.5,25C 31.1006,29.5553 24.7672,38.3886 24.5,51.5C 23.1667,51.5 21.8333,51.5 20.5,51.5C 21.453,42.7967 24.453,34.9634 29.5,28C 34.1263,26.0232 38.793,24.0232 43.5,22C 53.6751,19.7436 63.0085,21.7436 71.5,28C 84.1848,40.6851 85.6848,54.5184 76,69.5C 75.3292,68.7476 74.4959,68.4142 73.5,68.5 Z"/></g>
<g><path style="opacity:1" fill="#aacabc" d="M 179.5,52.5 C 177.801,52.6602 176.134,52.4935 174.5,52C 175.073,36.8789 167.739,27.8789 152.5,25C 130.657,25.5128 120.824,36.6794 123,58.5C 124.086,62.3464 125.919,65.6797 128.5,68.5C 125.991,69.9213 123.657,71.5879 121.5,73.5C 120.193,72.1984 120.193,70.865 121.5,69.5C 119.459,66.0811 117.959,62.4145 117,58.5C 114.398,39.1592 122.231,26.3258 140.5,20C 155.825,17.2133 167.992,22.0466 177,34.5C 180.83,40.3703 181.663,46.3703 179.5,52.5 Z"/></g>
<g><path style="opacity:1" fill="#378f6c" d="M 73.5,68.5 C 73.1667,68.5 72.8333,68.5 72.5,68.5C 70.6316,67.7368 68.9649,66.7368 67.5,65.5C 69.446,63.6473 70.946,61.314 72,58.5C 74.3488,38.5159 65.5154,29.3492 45.5,31C 35.3678,34.9822 30.0344,42.4822 29.5,53.5C 27.8333,53.5 26.1667,53.5 24.5,53.5C 22.4905,52.9826 21.1571,52.316 20.5,51.5C 21.8333,51.5 23.1667,51.5 24.5,51.5C 24.7672,38.3886 31.1006,29.5553 43.5,25C 55.0541,22.188 64.8874,25.0213 73,33.5C 81.0737,45.1477 81.2404,56.8144 73.5,68.5 Z"/></g>
<g><path style="opacity:1" fill="#b6d1c5" d="M 179.5,52.5 C 180.492,52.3284 181.158,52.6618 181.5,53.5C 176.167,53.5 170.833,53.5 165.5,53.5C 166.278,52.8444 166.944,52.0111 167.5,51C 164.144,36.9903 155.477,31.657 141.5,35C 130.446,42.7684 128.113,52.6017 134.5,64.5C 132.537,65.8202 130.537,67.1535 128.5,68.5C 125.919,65.6797 124.086,62.3464 123,58.5C 120.824,36.6794 130.657,25.5128 152.5,25C 167.739,27.8789 175.073,36.8789 174.5,52C 176.134,52.4935 177.801,52.6602 179.5,52.5 Z"/></g>
<g><path style="opacity:1" fill="#98c1af" d="M 144.5,90.5 C 146.635,88.9291 148.968,87.5957 151.5,86.5C 152.738,86.81 152.738,87.31 151.5,88C 152.333,88.1667 153.167,88.3333 154,88.5C 173.606,83.9956 184.44,71.6622 186.5,51.5C 182.189,23.8457 166.189,12.0124 138.5,16C 123.546,21.0882 115.213,31.2548 113.5,46.5C 113.156,42.1055 112.49,37.7722 111.5,33.5C 115.213,26.9477 120.213,21.4477 126.5,17C 146.84,6.15197 165.007,8.9853 181,25.5C 193.11,42.2705 193.443,59.2705 182,76.5C 171.452,89.2708 158.952,93.9374 144.5,90.5 Z"/></g>
<g><path style="opacity:1" fill="#2b8864" d="M 67.5,65.5 C 65.4561,64.4918 63.4561,63.4918 61.5,62.5C 63.6237,61.9688 65.1237,60.6355 66,58.5C 69.287,45.7442 64.4536,38.0776 51.5,35.5C 41.3497,36.6499 36.0163,42.3166 35.5,52.5C 33.901,52.2322 32.5676,52.5655 31.5,53.5C 30.8333,53.5 30.1667,53.5 29.5,53.5C 30.0344,42.4822 35.3678,34.9822 45.5,31C 65.5154,29.3492 74.3488,38.5159 72,58.5C 70.946,61.314 69.446,63.6473 67.5,65.5 Z"/></g>
<g><path style="opacity:1" fill="#c3d7ce" d="M 165.5,53.5 C 164.791,54.404 163.791,54.7373 162.5,54.5C 161.5,54.5 160.5,54.5 159.5,54.5C 159.748,43.6405 154.581,39.3071 144,41.5C 138.21,46.0941 137.043,51.7607 140.5,58.5C 141.602,59.1757 142.602,59.8423 143.5,60.5C 140.622,62.1054 137.622,63.4388 134.5,64.5C 128.113,52.6017 130.446,42.7684 141.5,35C 155.477,31.657 164.144,36.9903 167.5,51C 166.944,52.0111 166.278,52.8444 165.5,53.5 Z"/></g>
<g><path style="opacity:1" fill="#1e815a" d="M 61.5,62.5 C 58.318,61.4055 55.318,60.0722 52.5,58.5C 54.1927,57.5251 55.6927,56.1918 57,54.5C 57.3333,54.8333 57.6667,55.1667 58,55.5C 60.3305,49.4932 58.3305,45.4932 52,43.5C 45.8217,44.6429 43.3217,48.1429 44.5,54C 43.5842,54.2784 42.9175,54.7784 42.5,55.5C 38.7379,55.3089 35.0712,54.6422 31.5,53.5C 32.5676,52.5655 33.901,52.2322 35.5,52.5C 36.0163,42.3166 41.3497,36.6499 51.5,35.5C 64.4536,38.0776 69.287,45.7442 66,58.5C 65.1237,60.6355 63.6237,61.9688 61.5,62.5 Z"/></g>
<g><path style="opacity:1" fill="#cddcd5" d="M 162.5,54.5 C 156.131,56.0159 149.798,58.0159 143.5,60.5C 142.602,59.8423 141.602,59.1757 140.5,58.5C 137.043,51.7607 138.21,46.0941 144,41.5C 154.581,39.3071 159.748,43.6405 159.5,54.5C 160.5,54.5 161.5,54.5 162.5,54.5 Z"/></g>
<g><path style="opacity:1" fill="#0f7950" d="M 52.5,58.5 C 49.0636,57.808 45.7302,56.808 42.5,55.5C 42.9175,54.7784 43.5842,54.2784 44.5,54C 43.3217,48.1429 45.8217,44.6429 52,43.5C 58.3305,45.4932 60.3305,49.4932 58,55.5C 57.6667,55.1667 57.3333,54.8333 57,54.5C 55.6927,56.1918 54.1927,57.5251 52.5,58.5 Z"/></g>
<g><path style="opacity:1" fill="#f3f4f5" d="M 102.5,10.5 C 105.222,15.6678 107.556,21.0011 109.5,26.5C 109.557,27.609 109.89,28.609 110.5,29.5C 110.433,30.9587 110.766,32.2921 111.5,33.5C 112.49,37.7722 113.156,42.1055 113.5,46.5C 113.666,52.8421 113.5,59.1754 113,65.5C 111.906,72.305 110.572,78.9717 109,85.5C 113.062,81.2688 117.229,77.2688 121.5,73.5C 123.657,71.5879 125.991,69.9213 128.5,68.5C 130.537,67.1535 132.537,65.8202 134.5,64.5C 137.622,63.4388 140.622,62.1054 143.5,60.5C 149.798,58.0159 156.131,56.0159 162.5,54.5C 163.791,54.7373 164.791,54.404 165.5,53.5C 170.833,53.5 176.167,53.5 181.5,53.5C 174.012,66.829 164.012,77.829 151.5,86.5C 148.968,87.5957 146.635,88.9291 144.5,90.5C 141.566,91.4668 138.9,92.8001 136.5,94.5C 131.724,96.173 127.057,97.8396 122.5,99.5C 120.076,99.1924 117.743,99.5258 115.5,100.5C 117.045,101.452 118.712,101.785 120.5,101.5C 124.545,102.286 128.545,103.286 132.5,104.5C 133.78,105.931 135.447,106.598 137.5,106.5C 140.304,108.405 143.304,110.071 146.5,111.5C 160.806,119.806 172.139,131.139 180.5,145.5C 168.926,147.188 157.593,145.688 146.5,141C 140.994,138.745 135.66,136.245 130.5,133.5C 129.564,132.026 128.23,131.026 126.5,130.5C 120.263,125.77 114.43,120.437 109,114.5C 113.358,129.834 114.525,145.5 112.5,161.5C 111.192,165.4 110.192,169.4 109.5,173.5C 108.89,174.391 108.557,175.391 108.5,176.5C 107.27,178.297 106.604,180.297 106.5,182.5C 104.262,185.972 102.262,189.638 100.5,193.5C 98.1667,189.5 95.8333,185.5 93.5,181.5C 92.7345,178.33 91.7345,175.33 90.5,172.5C 90.6716,171.508 90.3382,170.842 89.5,170.5C 89.678,166.878 89.0114,163.544 87.5,160.5C 85.1074,144.716 86.7741,129.383 92.5,114.5C 87.8019,118.843 82.8019,123.51 77.5,128.5C 76.2905,128.932 75.2905,129.599 74.5,130.5C 70.8822,132.137 67.5488,134.137 64.5,136.5C 62.4561,137.508 60.4561,138.508 58.5,139.5C 51.8962,141.816 45.2296,143.816 38.5,145.5C 36.1944,145.993 33.861,146.326 31.5,146.5C 29.8333,146.5 28.1667,146.5 26.5,146.5C 24.1432,146.663 21.8098,146.497 19.5,146C 27.2768,133.725 36.9435,123.225 48.5,114.5C 52.2996,112.766 55.9663,110.766 59.5,108.5C 61.7221,107.312 64.0554,106.312 66.5,105.5C 69.4214,104.304 72.4214,103.304 75.5,102.5C 77.403,102.204 79.0697,101.537 80.5,100.5C 81.2389,100.631 81.9056,100.464 82.5,100C 80.4817,99.4954 78.4817,98.9954 76.5,98.5C 71.624,97.3942 66.9574,95.7275 62.5,93.5C 58.4734,91.4867 54.4734,89.4867 50.5,87.5C 37.7921,78.7903 27.4588,67.7903 19.5,54.5C 21.0453,53.5481 22.712,53.2148 24.5,53.5C 26.1667,53.5 27.8333,53.5 29.5,53.5C 30.1667,53.5 30.8333,53.5 31.5,53.5C 35.0712,54.6422 38.7379,55.3089 42.5,55.5C 45.7302,56.808 49.0636,57.808 52.5,58.5C 55.318,60.0722 58.318,61.4055 61.5,62.5C 63.4561,63.4918 65.4561,64.4918 67.5,65.5C 68.9649,66.7368 70.6316,67.7368 72.5,68.5C 79.4564,73.9544 85.9564,79.9544 92,86.5C 87.2487,70.5565 85.7487,54.2232 87.5,37.5C 88.9448,34.0635 89.9448,30.3968 90.5,26.5C 92.0198,24.1098 93.0198,21.4432 93.5,18.5C 95.6404,14.8965 97.807,11.2299 100,7.5C 101.045,8.37344 101.878,9.37344 102.5,10.5 Z"/></g>
<g><path style="opacity:1" fill="#ae89b3" d="M 166.5,55.5 C 170.182,55.3347 173.848,55.5014 177.5,56C 159.785,83.1866 134.785,97.3533 102.5,98.5C 117.817,75.1774 139.15,60.844 166.5,55.5 Z"/></g>
<g><path style="opacity:1" fill="#ad89b3" d="M 23.5,55.5 C 55.7607,57.6158 80.7607,72.1158 98.5,99C 72.0444,98.1889 49.8777,88.0223 32,68.5C 28.6482,64.4514 25.8148,60.1181 23.5,55.5 Z"/></g>
<g><path style="opacity:1" fill="#ad89b3" d="M 99.5,11.5 C 107.434,24.0463 111.434,37.8796 111.5,53C 111.481,68.9107 107.648,83.7441 100,97.5C 86.1944,68.9147 86.0278,40.2481 99.5,11.5 Z"/></g>
<g><path style="opacity:0.913" fill="#68a88d" d="M 197.5,84.5 C 197.5,89.8333 197.5,95.1667 197.5,100.5C 189.5,100.5 181.5,100.5 173.5,100.5C 155.659,100.17 137.992,100.503 120.5,101.5C 118.712,101.785 117.045,101.452 115.5,100.5C 117.743,99.5258 120.076,99.1924 122.5,99.5C 135.167,99.5 147.833,99.5 160.5,99.5C 169.839,99.6665 179.173,99.4998 188.5,99C 186.833,98.6667 185.167,98.3333 183.5,98C 188.696,93.9692 193.363,89.4692 197.5,84.5 Z"/></g>
<g><path style="opacity:1" fill="#8fbca9" d="M 76.5,98.5 C 78.4817,98.9954 80.4817,99.4954 82.5,100C 81.9056,100.464 81.2389,100.631 80.5,100.5C 54.5,100.5 28.5,100.5 2.5,100.5C 2.5,100.167 2.5,99.8333 2.5,99.5C 27.339,99.831 52.0056,99.4977 76.5,98.5 Z"/></g>
<g><path style="opacity:0.966" fill="#cfded6" d="M 2.5,100.5 C 28.5,100.5 54.5,100.5 80.5,100.5C 79.0697,101.537 77.403,102.204 75.5,102.5C 62.3397,101.34 49.0064,101.173 35.5,102C 17.4033,108.918 6.40327,121.751 2.5,140.5C 2.5,127.167 2.5,113.833 2.5,100.5 Z"/></g>
<g><path style="opacity:0.969" fill="#23845e" d="M 120.5,101.5 C 137.992,100.503 155.659,100.17 173.5,100.5C 183.696,105.36 191.696,112.693 197.5,122.5C 197.5,130.5 197.5,138.5 197.5,146.5C 191.206,112.734 170.873,97.9009 136.5,102C 135.016,102.662 133.683,103.496 132.5,104.5C 128.545,103.286 124.545,102.286 120.5,101.5 Z"/></g>
<g><path style="opacity:0.95" fill="#047448" d="M 173.5,100.5 C 181.5,100.5 189.5,100.5 197.5,100.5C 197.5,107.833 197.5,115.167 197.5,122.5C 191.696,112.693 183.696,105.36 173.5,100.5 Z"/></g>
<g><path style="opacity:1" fill="#bed4ca" d="M 66.5,105.5 C 64.0554,106.312 61.7221,107.312 59.5,108.5C 59.38,107.414 58.7133,106.747 57.5,106.5C 32.731,105.365 16.8977,116.699 10,140.5C 7.84205,170.509 21.6754,187.509 51.5,191.5C 62.5374,190.881 72.2041,187.048 80.5,180C 83.1785,176.43 86.1785,173.263 89.5,170.5C 90.3382,170.842 90.6716,171.508 90.5,172.5C 81.666,187.181 68.4993,194.847 51,195.5C 23.331,192.165 8.16435,176.665 5.5,149C 7.32838,124.173 20.3284,108.84 44.5,103C 52.1927,101.901 59.5261,102.734 66.5,105.5 Z"/></g>
<g><path style="opacity:1" fill="#ad89b3" d="M 89.5,101.5 C 92.2469,101.187 94.9135,101.52 97.5,102.5C 80.0514,129.061 55.3847,142.894 23.5,144C 39.3987,120.252 61.3987,106.086 89.5,101.5 Z"/></g>
<g><path style="opacity:1" fill="#ad89b3" d="M 102.5,102.5 C 134.291,103.067 158.958,116.734 176.5,143.5C 149.684,143.344 127.517,133.011 110,112.5C 107.723,108.92 105.223,105.586 102.5,102.5 Z"/></g>
<g><path style="opacity:1" fill="#ad89b3" d="M 99.5,103.5 C 100.458,103.953 101.292,104.619 102,105.5C 115.188,133.538 114.521,161.204 100,188.5C 88.4242,164.966 86.4242,140.633 94,115.5C 95.5737,111.354 97.407,107.354 99.5,103.5 Z"/></g>
<g><path style="opacity:1" fill="#419372" d="M 109.5,173.5 C 110.192,169.4 111.192,165.4 112.5,161.5C 117.463,175.034 127.13,183.534 141.5,187C 168.821,188.674 184.488,176.007 188.5,149C 187.478,132.038 179.478,120.038 164.5,113C 158.687,110.698 152.687,109.698 146.5,110C 149.097,110.779 149.097,111.279 146.5,111.5C 143.304,110.071 140.304,108.405 137.5,106.5C 162.857,101.429 180.691,110.762 191,134.5C 196.963,159.737 188.463,178.237 165.5,190C 143.796,196.95 125.963,191.45 112,173.5C 111.667,174.167 111.333,174.833 111,175.5C 110.722,174.584 110.222,173.918 109.5,173.5 Z"/></g>
<g><path style="opacity:1" fill="#b5d0c4" d="M 59.5,108.5 C 55.9663,110.766 52.2996,112.766 48.5,114.5C 48.5774,113.25 49.244,112.417 50.5,112C 34.9145,112.213 23.7479,119.38 17,133.5C 9.25676,157.843 17.0901,175.01 40.5,185C 62.9333,189.453 78.6,181.286 87.5,160.5C 89.0114,163.544 89.678,166.878 89.5,170.5C 86.1785,173.263 83.1785,176.43 80.5,180C 72.2041,187.048 62.5374,190.881 51.5,191.5C 21.6754,187.509 7.84205,170.509 10,140.5C 16.8977,116.699 32.731,105.365 57.5,106.5C 58.7133,106.747 59.38,107.414 59.5,108.5 Z"/></g>
<g><path style="opacity:1" fill="#509b7c" d="M 112.5,161.5 C 114.525,145.5 113.358,129.834 109,114.5C 114.43,120.437 120.263,125.77 126.5,130.5C 125.502,130.587 124.335,130.92 123,131.5C 113.692,150.438 117.858,165.605 135.5,177C 153.299,183.29 167.132,178.457 177,162.5C 178.975,158.037 179.808,153.371 179.5,148.5C 177.901,148.768 176.568,148.434 175.5,147.5C 177.604,147.799 179.604,147.466 181.5,146.5C 181.376,145.893 181.043,145.56 180.5,145.5C 172.139,131.139 160.806,119.806 146.5,111.5C 149.097,111.279 149.097,110.779 146.5,110C 152.687,109.698 158.687,110.698 164.5,113C 179.478,120.038 187.478,132.038 188.5,149C 184.488,176.007 168.821,188.674 141.5,187C 127.13,183.534 117.463,175.034 112.5,161.5 Z"/></g>
<g><path style="opacity:1" fill="#adccbe" d="M 48.5,114.5 C 36.9435,123.225 27.2768,133.725 19.5,146C 21.8098,146.497 24.1432,146.663 26.5,146.5C 25.4324,147.434 24.099,147.768 22.5,147.5C 21.1667,147.5 19.8333,147.5 18.5,147.5C 19.0763,164.913 27.743,176.08 44.5,181C 65.3946,183.481 78.5612,174.648 84,154.5C 85.5687,144.774 83.402,136.107 77.5,128.5C 82.8019,123.51 87.8019,118.843 92.5,114.5C 86.7741,129.383 85.1074,144.716 87.5,160.5C 78.6,181.286 62.9333,189.453 40.5,185C 17.0901,175.01 9.25676,157.843 17,133.5C 23.7479,119.38 34.9145,112.213 50.5,112C 49.244,112.417 48.5774,113.25 48.5,114.5 Z"/></g>
<g><path style="opacity:0.993" fill="#318c68" d="M 197.5,146.5 C 197.5,147.833 197.5,149.167 197.5,150.5C 191.29,185.13 170.623,199.963 135.5,195C 124.802,191.317 115.802,185.151 108.5,176.5C 108.557,175.391 108.89,174.391 109.5,173.5C 110.222,173.918 110.722,174.584 111,175.5C 111.333,174.833 111.667,174.167 112,173.5C 125.963,191.45 143.796,196.95 165.5,190C 188.463,178.237 196.963,159.737 191,134.5C 180.691,110.762 162.857,101.429 137.5,106.5C 135.447,106.598 133.78,105.931 132.5,104.5C 133.683,103.496 135.016,102.662 136.5,102C 170.873,97.9009 191.206,112.734 197.5,146.5 Z"/></g>
<g><path style="opacity:1" fill="#5ea386" d="M 126.5,130.5 C 128.23,131.026 129.564,132.026 130.5,133.5C 128.97,138.232 127.637,143.399 126.5,149C 127.282,155.893 129.949,161.893 134.5,167C 139.739,169.421 144.906,170.921 150,171.5C 154.513,170.166 159.013,168.666 163.5,167C 168.681,162.02 171.347,155.854 171.5,148.5C 172.736,147.754 174.07,147.421 175.5,147.5C 176.568,148.434 177.901,148.768 179.5,148.5C 179.808,153.371 178.975,158.037 177,162.5C 167.132,178.457 153.299,183.29 135.5,177C 117.858,165.605 113.692,150.438 123,131.5C 124.335,130.92 125.502,130.587 126.5,130.5 Z"/></g>
<g><path style="opacity:1" fill="#8abaa5" d="M 64.5,136.5 C 66.0174,136.511 67.1841,137.177 68,138.5C 73.9095,158.59 66.4095,168.09 45.5,167C 36.5255,163.247 31.8588,156.413 31.5,146.5C 33.861,146.326 36.1944,145.993 38.5,145.5C 37.7651,152.867 40.7651,158.033 47.5,161C 54.267,162.53 59.4337,160.364 63,154.5C 63.6667,150.833 63.6667,147.167 63,143.5C 61.9308,141.593 60.4308,140.259 58.5,139.5C 60.4561,138.508 62.4561,137.508 64.5,136.5 Z"/></g>
<g><path style="opacity:1" fill="#7bb29a" d="M 58.5,139.5 C 60.4308,140.259 61.9308,141.593 63,143.5C 63.6667,147.167 63.6667,150.833 63,154.5C 59.4337,160.364 54.267,162.53 47.5,161C 40.7651,158.033 37.7651,152.867 38.5,145.5C 45.2296,143.816 51.8962,141.816 58.5,139.5 Z"/></g>
<g><path style="opacity:1" fill="#69a88e" d="M 130.5,133.5 C 135.66,136.245 140.994,138.745 146.5,141C 157.593,145.688 168.926,147.188 180.5,145.5C 181.043,145.56 181.376,145.893 181.5,146.5C 179.604,147.466 177.604,147.799 175.5,147.5C 174.07,147.421 172.736,147.754 171.5,148.5C 171.347,155.854 168.681,162.02 163.5,167C 159.013,168.666 154.513,170.166 150,171.5C 144.906,170.921 139.739,169.421 134.5,167C 129.949,161.893 127.282,155.893 126.5,149C 127.637,143.399 128.97,138.232 130.5,133.5 Z"/></g>
<g><path style="opacity:1" fill="#97c0af" d="M 74.5,130.5 C 83.6875,145.497 81.6875,159.331 68.5,172C 49.7842,181.758 35.2842,177.592 25,159.5C 24.0026,155.496 23.1692,151.496 22.5,147.5C 24.099,147.768 25.4324,147.434 26.5,146.5C 28.1667,146.5 29.8333,146.5 31.5,146.5C 31.8588,156.413 36.5255,163.247 45.5,167C 66.4095,168.09 73.9095,158.59 68,138.5C 67.1841,137.177 66.0174,136.511 64.5,136.5C 67.5488,134.137 70.8822,132.137 74.5,130.5 Z"/></g>
<g><path style="opacity:1" fill="#c7d9d0" d="M 75.5,102.5 C 72.4214,103.304 69.4214,104.304 66.5,105.5C 59.5261,102.734 52.1927,101.901 44.5,103C 20.3284,108.84 7.32838,124.173 5.5,149C 8.16435,176.665 23.331,192.165 51,195.5C 68.4993,194.847 81.666,187.181 90.5,172.5C 91.7345,175.33 92.7345,178.33 93.5,181.5C 88.3919,187.947 82.3919,193.281 75.5,197.5C 58.1635,197.667 40.8301,197.5 23.5,197C 13,193.833 6.16667,187 3,176.5C 2.50013,164.505 2.33346,152.505 2.5,140.5C 6.40327,121.751 17.4033,108.918 35.5,102C 49.0064,101.173 62.3397,101.34 75.5,102.5 Z"/></g>
<g><path style="opacity:0.947" fill="#25855f" d="M 197.5,150.5 C 197.5,157.833 197.5,165.167 197.5,172.5C 190.825,182.174 182.825,190.507 173.5,197.5C 157.833,197.5 142.167,197.5 126.5,197.5C 119.225,193.214 112.559,188.214 106.5,182.5C 106.604,180.297 107.27,178.297 108.5,176.5C 115.802,185.151 124.802,191.317 135.5,195C 170.623,199.963 191.29,185.13 197.5,150.5 Z"/></g>
<g><path style="opacity:1" fill="#a4c7b7" d="M 77.5,128.5 C 83.402,136.107 85.5687,144.774 84,154.5C 78.5612,174.648 65.3946,183.481 44.5,181C 27.743,176.08 19.0763,164.913 18.5,147.5C 19.8333,147.5 21.1667,147.5 22.5,147.5C 23.1692,151.496 24.0026,155.496 25,159.5C 35.2842,177.592 49.7842,181.758 68.5,172C 81.6875,159.331 83.6875,145.497 74.5,130.5C 75.2905,129.599 76.2905,128.932 77.5,128.5 Z"/></g>
<g><path style="opacity:0.936" fill="#d4e1da" d="M 93.5,181.5 C 95.8333,185.5 98.1667,189.5 100.5,193.5C 100.5,194.833 100.5,196.167 100.5,197.5C 92.1667,197.5 83.8333,197.5 75.5,197.5C 82.3919,193.281 88.3919,187.947 93.5,181.5 Z"/></g>
<g><path style="opacity:1" fill="#107a51" d="M 197.5,172.5 C 195.626,186.707 187.626,195.041 173.5,197.5C 182.825,190.507 190.825,182.174 197.5,172.5 Z"/></g>
<g><path style="opacity:1" fill="#0c784d" d="M 106.5,182.5 C 112.559,188.214 119.225,193.214 126.5,197.5C 117.833,197.5 109.167,197.5 100.5,197.5C 100.5,196.167 100.5,194.833 100.5,193.5C 102.262,189.638 104.262,185.972 106.5,182.5 Z"/></g>
</svg>